<svg id="Component_9_1" data-name="Component 9 – 1" xmlns="http://www.w3.org/2000/svg" width="53.031" height="30.935" viewBox="0 0 53.031 30.935">
  <path id="Path_20" data-name="Path 20" d="M55.322,14.544H6.71a2.216,2.216,0,0,1-2.21-2.21h0a2.216,2.216,0,0,1,2.21-2.21H55.322a2.216,2.216,0,0,1,2.21,2.21h0A2.216,2.216,0,0,1,55.322,14.544Z" transform="translate(-4.5 -10.125)" fill="#fff"/>
  <path id="Path_21" data-name="Path 21" d="M31.322,21.294H6.71a2.216,2.216,0,0,1-2.21-2.21h0a2.216,2.216,0,0,1,2.21-2.21H31.322a2.216,2.216,0,0,1,2.21,2.21h0A2.216,2.216,0,0,1,31.322,21.294Z" transform="translate(-4.5 -3.617)" fill="#fff"/>
  <path id="Path_22" data-name="Path 22" d="M55.322,28.044H6.71a2.216,2.216,0,0,1-2.21-2.21h0a2.216,2.216,0,0,1,2.21-2.21H55.322a2.216,2.216,0,0,1,2.21,2.21h0A2.216,2.216,0,0,1,55.322,28.044Z" transform="translate(-4.5 2.891)" fill="#fff"/>
</svg>
