<svg xmlns="http://www.w3.org/2000/svg" width="35.677" height="29.086" viewBox="0 0 35.677 29.086">
  <g id="Group_21" data-name="Group 21" transform="translate(-167.162 -82)">
    <path id="Icon_ionic-ios-arrow-up" data-name="Icon ionic-ios-arrow-up" d="M24.03,15.635,37.519,25.26a3.3,3.3,0,0,0,3.6,0,1.485,1.485,0,0,0,0-2.575L25.836,11.78a3.325,3.325,0,0,0-3.515-.053L6.931,22.677a1.486,1.486,0,0,0,0,2.575,3.3,3.3,0,0,0,3.6,0Z" transform="translate(160.974 70.749)" fill="#fff"/>
    <path id="Icon_ionic-ios-arrow-up-2" data-name="Icon ionic-ios-arrow-up" d="M24.03,15.635,37.519,25.26a3.3,3.3,0,0,0,3.6,0,1.485,1.485,0,0,0,0-2.575L25.836,11.78a3.325,3.325,0,0,0-3.515-.053L6.931,22.677a1.486,1.486,0,0,0,0,2.575,3.3,3.3,0,0,0,3.6,0Z" transform="translate(160.974 85.292)" fill="#fff"/>
  </g>
</svg>
